<svg width="64" height="64" viewBox="0 0 64 64" fill="none" xmlns="http://www.w3.org/2000/svg">
<rect width="64" height="64" fill="#48BB78"/>
<g clip-path="url(#clip0)">
<path opacity="0.4" d="M46 29.625C44.1211 29.625 42.2844 30.1822 40.7221 31.2261C39.1598 32.2699 37.9422 33.7536 37.2231 35.4895C36.5041 37.2254 36.316 39.1356 36.6825 40.9784C37.0491 42.8212 37.9539 44.5139 39.2825 45.8425C40.6111 47.1711 42.3038 48.0759 44.1466 48.4425C45.9895 48.8091 47.8996 48.6209 49.6355 47.9019C51.3714 47.1829 52.8551 45.9652 53.899 44.4029C54.9428 42.8407 55.5 41.004 55.5 39.125C55.5 36.6055 54.4991 34.1891 52.7175 32.4075C50.9359 30.6259 48.5196 29.625 46 29.625ZM50.75 40.3125C50.75 40.4174 50.7083 40.5181 50.6341 40.5923C50.56 40.6664 50.4593 40.7081 50.3544 40.7081H47.5831V43.4794C47.5831 43.5844 47.5414 43.685 47.4672 43.7592C47.393 43.8334 47.2924 43.875 47.1875 43.875H44.8125C44.7076 43.875 44.607 43.8334 44.5328 43.7592C44.4586 43.685 44.4169 43.5844 44.4169 43.4794V40.7081H41.6456C41.5407 40.7081 41.4401 40.6664 41.3659 40.5923C41.2917 40.5181 41.25 40.4174 41.25 40.3125V37.9375C41.25 37.8326 41.2917 37.732 41.3659 37.6578C41.4401 37.5836 41.5407 37.5419 41.6456 37.5419H44.4169V34.7706C44.4169 34.6657 44.4586 34.5651 44.5328 34.4909C44.607 34.4167 44.7076 34.375 44.8125 34.375H47.1875C47.2924 34.375 47.393 34.4167 47.4672 34.4909C47.5414 34.5651 47.5831 34.6657 47.5831 34.7706V37.5419H50.3544C50.4064 37.5419 50.4578 37.5522 50.5058 37.5721C50.5538 37.5919 50.5974 37.6211 50.6341 37.6578C50.6709 37.6945 50.7 37.7382 50.7199 37.7861C50.7398 37.8341 50.75 37.8856 50.75 37.9375V40.3125Z" fill="white"/>
<path d="M34.125 39.125C34.125 37.7074 34.4159 36.3663 34.8739 35.1046C33.8591 35.4023 32.8076 35.5565 31.75 35.5625C29.9242 35.5625 28.2172 35.1172 26.666 34.375H26.05C23.7826 34.3756 21.6082 35.2766 20.0049 36.8799C18.4016 38.4832 17.5006 40.6576 17.5 42.925V45.0625C17.5 46.0073 17.8753 46.9135 18.5434 47.5816C19.2115 48.2497 20.1177 48.625 21.0625 48.625H38.9492C36.0384 46.4586 34.125 43.0237 34.125 39.125ZM15.125 29.625C16.0645 29.625 16.9828 29.3464 17.764 28.8245C18.5451 28.3025 19.1539 27.5607 19.5134 26.6928C19.8729 25.8248 19.967 24.8697 19.7837 23.9483C19.6005 23.0269 19.1481 22.1805 18.4838 21.5162C17.8195 20.8519 16.9731 20.3996 16.0517 20.2163C15.1303 20.033 14.1752 20.1271 13.3073 20.4866C12.4393 20.8461 11.6975 21.4549 11.1755 22.236C10.6536 23.0172 10.375 23.9355 10.375 24.875C10.375 26.1348 10.8754 27.343 11.7662 28.2338C12.657 29.1246 13.8652 29.625 15.125 29.625ZM20.8473 33.3805C19.9584 32.4951 18.7546 31.9986 17.5 32H12.75C11.4906 32.0012 10.2831 32.502 9.39254 33.3926C8.502 34.2831 8.00118 35.4906 8 36.75V39.125C8 39.7549 8.25022 40.359 8.69562 40.8044C9.14102 41.2498 9.74511 41.5 10.375 41.5H15.266C15.4921 39.803 16.1154 38.1833 17.0852 36.7725C18.055 35.3617 19.3439 34.1995 20.8473 33.3805V33.3805ZM31.7411 32H31.75C33.953 31.9988 36.0654 31.1227 37.6226 29.5643C39.1797 28.0059 40.0542 25.8928 40.0536 23.6897C40.053 21.4867 39.1774 19.3741 37.6194 17.8165C36.0614 16.2589 33.9486 15.3839 31.7455 15.3839C29.5425 15.3839 27.4297 16.2589 25.8717 17.8165C24.3137 19.3741 23.4381 21.4867 23.4375 23.6897C23.4369 25.8928 24.3113 28.0059 25.8685 29.5643C27.4257 31.1227 29.538 31.9988 31.7411 32V32Z" fill="white"/>
</g>
<defs>
<clipPath id="clip0">
<rect width="47.5" height="38" fill="white" transform="translate(8 13)"/>
</clipPath>
</defs>
</svg>
