<svg width="64" height="64" viewBox="0 0 64 64" fill="none" xmlns="http://www.w3.org/2000/svg">
<rect width="64" height="64" fill="#4299E1"/>
<path opacity="0.4" d="M16.05 29.625C16.9796 29.625 17.8883 29.3464 18.6612 28.8245C19.4341 28.3025 20.0365 27.5607 20.3922 26.6927C20.748 25.8248 20.841 24.8697 20.6597 23.9483C20.4783 23.0269 20.0307 22.1805 19.3734 21.5162C18.7161 20.8519 17.8786 20.3996 16.9669 20.2163C16.0552 20.033 15.1102 20.1271 14.2514 20.4866C13.3926 20.8461 12.6585 21.4549 12.1421 22.236C11.6257 23.0172 11.35 23.9355 11.35 24.875C11.3512 26.1344 11.8467 27.3419 12.7279 28.2325C13.6091 29.123 14.8038 29.6238 16.05 29.625V29.625ZM51.3 32H46.6C45.3586 31.9986 44.1675 32.4951 43.288 33.3805C44.7755 34.1987 46.0505 35.3607 47.009 36.7718C47.9675 38.1829 48.5823 39.803 48.8031 41.5H53.65C54.2733 41.5 54.871 41.2498 55.3117 40.8044C55.7524 40.359 56 39.7549 56 39.125V36.75C55.9988 35.4906 55.5033 34.2831 54.6221 33.3925C53.7409 32.502 52.5462 32.0012 51.3 32ZM13.7 32C12.4538 32.0012 11.2591 32.502 10.3779 33.3925C9.49672 34.2831 9.00117 35.4906 9 36.75V39.125C9 39.7549 9.24759 40.359 9.6883 40.8044C10.129 41.2498 10.7267 41.5 11.35 41.5H16.1895C16.4133 39.803 17.03 38.1833 17.9896 36.7725C18.9491 35.3617 20.2245 34.1995 21.712 33.3805C20.8325 32.4951 19.6414 31.9986 18.4 32H13.7ZM48.95 29.625C49.8796 29.625 50.7883 29.3464 51.5612 28.8245C52.3341 28.3025 52.9365 27.5607 53.2922 26.6927C53.648 25.8248 53.741 24.8697 53.5597 23.9483C53.3783 23.0269 52.9307 22.1805 52.2734 21.5162C51.6161 20.8519 50.7786 20.3996 49.8669 20.2163C48.9552 20.033 48.0102 20.1271 47.1514 20.4866C46.2926 20.8461 45.5585 21.4549 45.0421 22.236C44.5256 23.0172 44.25 23.9355 44.25 24.875C44.2512 26.1344 44.7467 27.3419 45.6279 28.2325C46.5091 29.123 47.7038 29.6238 48.95 29.625Z" fill="white"/>
<path d="M38.1399 34.375H37.5304C35.9636 35.149 34.2439 35.555 32.4999 35.5625C30.6933 35.5625 29.0043 35.1172 27.4694 34.375H26.8599C24.6164 34.3756 22.4649 35.2766 20.8784 36.8799C19.292 38.4832 18.4005 40.6576 18.3999 42.925V45.0625C18.3999 46.0074 18.7713 46.9135 19.4324 47.5816C20.0934 48.2497 20.99 48.625 21.9249 48.625H43.0749C44.0098 48.625 44.9064 48.2497 45.5675 47.5816C46.2285 46.9135 46.5999 46.0074 46.5999 45.0625V42.925C46.5993 40.6576 45.7078 38.4832 44.1214 36.8799C42.535 35.2766 40.3835 34.3756 38.1399 34.375V34.375ZM32.4999 32C34.1267 32 35.7169 31.5125 37.0695 30.5991C38.4221 29.6857 39.4763 28.3875 40.0988 26.8686C40.7213 25.3497 40.8842 23.6783 40.5669 22.0658C40.2495 20.4534 39.4661 18.9722 38.3159 17.8097C37.1656 16.6472 35.7 15.8555 34.1045 15.5347C32.509 15.214 30.8553 15.3786 29.3523 16.0078C27.8494 16.6369 26.5648 17.7023 25.6611 19.0693C24.7573 20.4363 24.2749 22.0435 24.2749 23.6875C24.2743 24.7793 24.4867 25.8605 24.8998 26.8693C25.313 27.878 25.9188 28.7946 26.6827 29.5666C27.4465 30.3386 28.3535 30.9509 29.3516 31.3685C30.3498 31.786 31.4196 32.0006 32.4999 32Z" fill="white"/>
</svg>
