<svg width="64" height="64" viewBox="0 0 64 64" fill="none" xmlns="http://www.w3.org/2000/svg">
<circle cx="32" cy="32" r="31" fill="#EDF2F7"/>
<path opacity="0.4" d="M29.6094 22.7031C29.6094 22.4918 29.6933 22.2891 29.8428 22.1396C29.9922 21.9902 30.1949 21.9062 30.4062 21.9062H33.5938C33.8051 21.9062 34.0078 21.9902 34.1572 22.1396C34.3067 22.2891 34.3906 22.4918 34.3906 22.7031V31.8473L38.6074 34.9152C38.6922 34.977 38.7639 35.055 38.8184 35.1445C38.873 35.2341 38.9093 35.3336 38.9254 35.4372C38.9414 35.5408 38.9368 35.6466 38.9119 35.7485C38.887 35.8504 38.8422 35.9463 38.7801 36.0309L36.9074 38.6074C36.7817 38.7774 36.594 38.8909 36.3851 38.9232C36.1762 38.9555 35.963 38.9041 35.7918 38.7801L29.9348 34.5234C29.834 34.4489 29.7521 34.3519 29.6955 34.24C29.639 34.1282 29.6095 34.0046 29.6094 33.8793V22.7031Z" fill="#718096"/>
<path d="M32 15.5312C22.9023 15.5312 15.5312 22.9023 15.5312 32C15.5312 41.0977 22.9023 48.4688 32 48.4688C41.0977 48.4688 48.4688 41.0977 48.4688 32C48.4688 22.9023 41.0977 15.5312 32 15.5312ZM38.7801 36.0309L36.9074 38.6074C36.7817 38.7774 36.594 38.8909 36.3851 38.9232C36.1762 38.9555 35.963 38.9041 35.7918 38.7801L29.9348 34.5234C29.834 34.4489 29.7521 34.3519 29.6955 34.24C29.639 34.1282 29.6095 34.0046 29.6094 33.8793V22.7031C29.6094 22.4918 29.6933 22.2891 29.8428 22.1396C29.9922 21.9902 30.1949 21.9062 30.4062 21.9062H33.5938C33.8051 21.9062 34.0078 21.9902 34.1572 22.1396C34.3067 22.2891 34.3906 22.4918 34.3906 22.7031V31.8473L38.6074 34.9152C38.6922 34.977 38.7639 35.055 38.8184 35.1445C38.873 35.2341 38.9093 35.3336 38.9254 35.4372C38.9414 35.5408 38.9368 35.6466 38.9119 35.7485C38.887 35.8504 38.8422 35.9463 38.7801 36.0309V36.0309Z" fill="#718096"/>
</svg>
