<svg width="64" height="64" viewBox="0 0 64 64" fill="none" xmlns="http://www.w3.org/2000/svg">
<circle cx="32" cy="32" r="31" fill="#FED7E2"/>
<g clip-path="url(#clip0)">
<path opacity="0.4" d="M26.25 42.3125C24.1816 42.3125 22.5 43.5254 22.5 45.5938V46.2969C22.5 46.4834 22.5741 46.6622 22.7059 46.7941C22.8378 46.9259 23.0166 47 23.2031 47H40.5469C40.7334 47 40.9122 46.9259 41.0441 46.7941C41.1759 46.6622 41.25 46.4834 41.25 46.2969V45.5938C41.25 43.5254 39.5684 42.3125 37.5 42.3125H26.25Z" fill="#97266D"/>
<path d="M47.3438 20.7499H41.25V18.4062C41.2505 18.222 41.2146 18.0395 41.1446 17.8691C41.0745 17.6988 40.9716 17.5439 40.8416 17.4133C40.7117 17.2827 40.5573 17.179 40.3873 17.1081C40.2173 17.0371 40.035 17.0004 39.8508 16.9999H23.9062C23.722 16.9995 23.5395 17.0353 23.3692 17.1054C23.1988 17.1754 23.0439 17.2784 22.9133 17.4083C22.7828 17.5382 22.679 17.6926 22.6081 17.8626C22.5372 18.0326 22.5005 18.215 22.5 18.3992V20.7499H16.4062C16.222 20.7495 16.0395 20.7853 15.8692 20.8554C15.6988 20.9254 15.5439 21.0284 15.4133 21.1583C15.2828 21.2882 15.179 21.4426 15.1081 21.6126C15.0372 21.7826 15.0005 21.9649 15 22.1492V25.4374C15 27.5292 16.3184 29.6796 18.627 31.3378C20.4727 32.6679 22.7168 33.5117 25.0723 33.7812C26.9121 36.8339 29.0625 38.0937 29.0625 38.0937V42.3124H34.6875V38.0937C34.6875 38.0937 36.8379 36.8339 38.6777 33.7812C41.0391 33.5117 43.2832 32.6679 45.123 31.3378C47.4258 29.6796 48.75 27.5292 48.75 25.4374V22.1562C48.7505 21.972 48.7146 21.7895 48.6446 21.6191C48.5745 21.4488 48.4716 21.2939 48.3416 21.1633C48.2117 21.0327 48.0573 20.929 47.8873 20.8581C47.7173 20.7871 47.535 20.7504 47.3508 20.7499H47.3438ZM20.8184 28.2968C19.3887 27.2656 18.75 26.1171 18.75 25.4374V24.4999H22.5117C22.5557 26.2077 22.8075 27.9038 23.2617 29.5507C22.3904 29.2542 21.5672 28.8318 20.8184 28.2968V28.2968ZM45 25.4374C45 26.3808 43.9629 27.5527 42.9316 28.2968C42.1806 28.8317 41.3555 29.2542 40.4824 29.5507C40.9366 27.9038 41.1884 26.2077 41.2324 24.4999H45V25.4374Z" fill="#97266D"/>
</g>
<defs>
<clipPath id="clip0">
<rect width="33.75" height="30" fill="white" transform="translate(15 17)"/>
</clipPath>
</defs>
</svg>
