<svg width="1143" height="252" viewBox="0 0 1143 252" fill="none" xmlns="http://www.w3.org/2000/svg">
<path d="M112.152 197.224L0.120001 125.224V93.544L112.152 21.544V63.304L37.848 108.808V109.96L112.152 155.464V197.224ZM154.664 205L192.104 17.8H238.184L208.232 166.408H288.872L281.384 205H154.664ZM384.375 208.456C374.583 208.456 365.655 206.728 357.591 203.272C349.719 199.816 342.999 194.824 337.431 188.296C331.863 181.576 327.543 173.416 324.471 163.816C321.399 154.216 319.863 143.368 319.863 131.272C319.863 114.76 322.167 99.4 326.775 85.192C331.575 70.792 338.199 58.408 346.647 48.04C355.287 37.48 365.463 29.224 377.175 23.272C388.887 17.32 401.655 14.344 415.479 14.344C425.271 14.344 434.103 16.168 441.975 19.816C449.847 23.272 456.567 28.36 462.135 35.08C467.703 41.608 471.927 49.672 474.807 59.272C477.879 68.68 479.415 79.432 479.415 91.528C479.415 108.04 477.015 123.496 472.215 137.896C467.607 152.104 461.079 164.488 452.631 175.048C444.183 185.416 434.103 193.576 422.391 199.528C410.871 205.48 398.199 208.456 384.375 208.456ZM388.983 168.712C395.127 168.712 400.791 166.696 405.975 162.664C411.351 158.44 415.959 152.776 419.799 145.672C423.639 138.376 426.615 129.736 428.727 119.752C431.031 109.768 432.183 98.824 432.183 86.92C432.183 75.4 430.455 67.048 426.999 61.864C423.543 56.68 418.167 54.088 410.871 54.088C404.727 54.088 398.967 56.2 393.591 60.424C388.215 64.456 383.511 70.12 379.479 77.416C375.639 84.52 372.567 93.16 370.263 103.336C368.151 113.32 367.095 124.168 367.095 135.88C367.095 147.4 368.823 155.752 372.279 160.936C375.927 166.12 381.495 168.712 388.983 168.712ZM569.159 208.456C546.695 208.456 528.935 201.64 515.879 188.008C503.015 174.184 496.583 154.504 496.583 128.968C496.583 112.264 499.175 96.904 504.359 82.888C509.543 68.872 516.647 56.776 525.671 46.6C534.695 36.424 545.255 28.552 557.351 22.984C569.639 17.224 582.791 14.344 596.807 14.344C609.287 14.344 620.039 17.032 629.062 22.408C638.087 27.592 645.383 35.08 650.951 44.872L619.847 69.064C616.391 63.88 612.647 60.136 608.615 57.832C604.775 55.336 600.071 54.088 594.503 54.088C587.591 54.088 581.063 56.008 574.919 59.848C568.775 63.496 563.399 68.584 558.791 75.112C554.183 81.448 550.535 89.032 547.847 97.864C545.159 106.696 543.815 116.104 543.815 126.088C543.815 139.72 546.311 150.376 551.303 158.056C556.487 165.544 565.127 169.288 577.223 169.288C579.911 169.288 582.695 168.904 585.575 168.136C588.647 167.368 591.239 166.216 593.351 164.68L600.263 133.576H572.615L579.527 96.136H647.495L629.639 188.872C622.343 194.44 613.415 199.144 602.855 202.984C592.487 206.632 581.255 208.456 569.159 208.456ZM729.75 208.456C719.958 208.456 711.03 206.728 702.966 203.272C695.094 199.816 688.374 194.824 682.806 188.296C677.238 181.576 672.918 173.416 669.846 163.816C666.774 154.216 665.238 143.368 665.238 131.272C665.238 114.76 667.542 99.4 672.15 85.192C676.95 70.792 683.574 58.408 692.022 48.04C700.662 37.48 710.838 29.224 722.55 23.272C734.262 17.32 747.03 14.344 760.854 14.344C770.646 14.344 779.478 16.168 787.35 19.816C795.222 23.272 801.942 28.36 807.51 35.08C813.078 41.608 817.302 49.672 820.182 59.272C823.254 68.68 824.79 79.432 824.79 91.528C824.79 108.04 822.39 123.496 817.59 137.896C812.982 152.104 806.454 164.488 798.006 175.048C789.558 185.416 779.478 193.576 767.766 199.528C756.246 205.48 743.574 208.456 729.75 208.456ZM734.358 168.712C740.502 168.712 746.166 166.696 751.35 162.664C756.726 158.44 761.334 152.776 765.174 145.672C769.014 138.376 771.99 129.736 774.102 119.752C776.406 109.768 777.558 98.824 777.558 86.92C777.558 75.4 775.83 67.048 772.374 61.864C768.918 56.68 763.542 54.088 756.246 54.088C750.102 54.088 744.342 56.2 738.966 60.424C733.59 64.456 728.886 70.12 724.854 77.416C721.014 84.52 717.942 93.16 715.638 103.336C713.526 113.32 712.47 124.168 712.47 135.88C712.47 147.4 714.198 155.752 717.654 160.936C721.302 166.12 726.87 168.712 734.358 168.712ZM825.253 251.08L970.118 0.519989H1010.44L865.286 251.08H825.253ZM1030.77 197.224V155.464L1105.08 109.96V108.808L1030.77 63.304V21.544L1142.81 93.544V125.224L1030.77 197.224Z" fill="#425A70"/>
</svg>
