<svg width="726" height="726" viewBox="0 0 726 726" fill="none" xmlns="http://www.w3.org/2000/svg">
<circle cx="363" cy="363" r="363" fill="#448FE1"/>
<path d="M221.643 540.464C221.643 543.6 222.888 546.606 225.105 548.823C227.322 551.04 230.329 552.286 233.464 552.286H493.536C496.671 552.286 499.678 551.04 501.895 548.823C504.112 546.606 505.357 543.6 505.357 540.464V505H221.643V540.464ZM505.357 174H221.643C215.372 174 209.359 176.491 204.925 180.925C200.491 185.359 198 191.372 198 197.643V469.536C198 472.671 199.245 475.678 201.462 477.895C203.679 480.112 206.686 481.357 209.821 481.357H517.179C520.314 481.357 523.321 480.112 525.538 477.895C527.755 475.678 529 472.671 529 469.536V197.643C529 191.372 526.509 185.359 522.075 180.925C517.641 176.491 511.628 174 505.357 174V174ZM257.107 437.027C254.185 437.027 251.328 436.16 248.898 434.536C246.468 432.913 244.574 430.605 243.455 427.905C242.337 425.205 242.044 422.234 242.614 419.367C243.184 416.501 244.592 413.868 246.658 411.801C248.725 409.735 251.358 408.327 254.224 407.757C257.091 407.187 260.062 407.48 262.762 408.598C265.462 409.716 267.77 411.61 269.394 414.04C271.017 416.47 271.884 419.327 271.884 422.25C271.884 426.169 270.327 429.928 267.556 432.699C264.785 435.47 261.026 437.027 257.107 437.027ZM481.714 428.161C481.714 429.728 481.092 431.232 479.983 432.34C478.875 433.449 477.371 434.071 475.804 434.071H369.411C367.843 434.071 366.34 433.449 365.231 432.34C364.123 431.232 363.5 429.728 363.5 428.161V416.339C363.5 414.772 364.123 413.268 365.231 412.16C366.34 411.051 367.843 410.429 369.411 410.429H475.804C477.371 410.429 478.875 411.051 479.983 412.16C481.092 413.268 481.714 414.772 481.714 416.339V428.161ZM481.714 339.5C481.714 345.77 479.223 351.784 474.789 356.218C470.356 360.652 464.342 363.143 458.071 363.143H268.929C262.658 363.143 256.644 360.652 252.211 356.218C247.777 351.784 245.286 345.77 245.286 339.5V244.929C245.286 238.658 247.777 232.644 252.211 228.211C256.644 223.777 262.658 221.286 268.929 221.286H458.071C464.342 221.286 470.356 223.777 474.789 228.211C479.223 232.644 481.714 238.658 481.714 244.929V339.5Z" fill="white"/>
</svg>
