<svg width="448" height="512" viewBox="0 0 448 512" fill="none" xmlns="http://www.w3.org/2000/svg">
<path d="M32 496C32 500.243 33.6857 504.313 36.6863 507.314C39.6869 510.314 43.7565 512 48 512H400C404.243 512 408.313 510.314 411.314 507.314C414.314 504.313 416 500.243 416 496V448H32V496ZM416 0H32C23.5131 0 15.3737 3.37142 9.37258 9.37258C3.37142 15.3737 0 23.5131 0 32L0 400C0 404.243 1.68571 408.313 4.68629 411.314C7.68687 414.314 11.7565 416 16 416H432C436.243 416 440.313 414.314 443.314 411.314C446.314 408.313 448 404.243 448 400V32C448 23.5131 444.629 15.3737 438.627 9.37258C432.626 3.37142 424.487 0 416 0V0ZM80 356C76.0444 356 72.1776 354.827 68.8886 352.629C65.5996 350.432 63.0362 347.308 61.5224 343.654C60.0087 339.999 59.6126 335.978 60.3843 332.098C61.156 328.219 63.0608 324.655 65.8579 321.858C68.6549 319.061 72.2186 317.156 76.0982 316.384C79.9778 315.613 83.9991 316.009 87.6537 317.522C91.3082 319.036 94.4318 321.6 96.6294 324.889C98.827 328.178 100 332.044 100 336C100 341.304 97.8929 346.391 94.1421 350.142C90.3914 353.893 85.3043 356 80 356ZM384 344C384 346.122 383.157 348.157 381.657 349.657C380.157 351.157 378.122 352 376 352H232C229.878 352 227.843 351.157 226.343 349.657C224.843 348.157 224 346.122 224 344V328C224 325.878 224.843 323.843 226.343 322.343C227.843 320.843 229.878 320 232 320H376C378.122 320 380.157 320.843 381.657 322.343C383.157 323.843 384 325.878 384 328V344ZM384 224C384 232.487 380.629 240.626 374.627 246.627C368.626 252.629 360.487 256 352 256H96C87.5131 256 79.3737 252.629 73.3726 246.627C67.3714 240.626 64 232.487 64 224V96C64 87.5131 67.3714 79.3737 73.3726 73.3726C79.3737 67.3714 87.5131 64 96 64H352C360.487 64 368.626 67.3714 374.627 73.3726C380.629 79.3737 384 87.5131 384 96V224Z" fill="#448FE1"/>
<path d="M384 224C384 232.487 380.629 240.626 374.627 246.627C368.626 252.629 360.487 256 352 256H96C87.5131 256 79.3737 252.629 73.3726 246.627C67.3714 240.626 64 232.487 64 224V96C64 87.5131 67.3714 79.3737 73.3726 73.3726C79.3737 67.3714 87.5131 64 96 64H352C360.487 64 368.626 67.3714 374.627 73.3726C380.629 79.3737 384 87.5131 384 96V224Z" fill="#83BAF5"/>
</svg>
