<svg width="64" height="64" viewBox="0 0 64 64" fill="none" xmlns="http://www.w3.org/2000/svg">
<circle cx="32" cy="32" r="31" fill="#EDF2F7"/>
<path opacity="0.4" d="M41.5 31C42.6273 31 43.7294 30.6701 44.6667 30.052C45.6041 29.4339 46.3347 28.5554 46.7661 27.5276C47.1975 26.4998 47.3104 25.3688 47.0905 24.2776C46.8705 23.1865 46.3276 22.1842 45.5305 21.3975C44.7333 20.6109 43.7177 20.0751 42.612 19.8581C41.5063 19.641 40.3602 19.7524 39.3187 20.1782C38.2771 20.6039 37.3869 21.3249 36.7606 22.2499C36.1343 23.1749 35.8 24.2625 35.8 25.375C35.8 26.8668 36.4005 28.2976 37.4695 29.3525C38.5384 30.4074 39.9882 31 41.5 31ZM44.35 32.875H44.1244C43.299 33.1563 42.4262 33.3438 41.5 33.3438C40.5737 33.3438 39.7009 33.1563 38.8756 32.875H38.65C37.4387 32.875 36.3225 33.2207 35.3428 33.7773C36.7915 35.3184 37.7 37.3633 37.7 39.625V41.875C37.7 42.0039 37.6703 42.127 37.6643 42.25H48.15C48.9059 42.25 49.6308 41.9537 50.1652 41.4262C50.6997 40.8988 51 40.1834 51 39.4375C51.0005 38.5756 50.8288 37.722 50.4947 36.9256C50.1607 36.1292 49.6709 35.4056 49.0533 34.7961C48.4357 34.1866 47.7024 33.7032 46.8954 33.3736C46.0884 33.044 45.2234 32.8745 44.35 32.875V32.875Z" fill="#718096"/>
<path d="M24.4 31C25.7152 31 27.001 30.6151 28.0945 29.894C29.1881 29.1729 30.0405 28.148 30.5438 26.9489C31.0471 25.7497 31.1788 24.4302 30.9222 23.1572C30.6656 21.8842 30.0323 20.7149 29.1023 19.7971C28.1722 18.8793 26.9873 18.2543 25.6974 18.0011C24.4074 17.7479 23.0703 17.8778 21.8552 18.3745C20.64 18.8712 19.6014 19.7124 18.8707 20.7916C18.14 21.8708 17.75 23.1396 17.75 24.4375C17.7495 25.2994 17.9212 26.153 18.2552 26.9494C18.5893 27.7458 19.0791 28.4694 19.6967 29.0789C20.3143 29.6884 21.0476 30.1718 21.8546 30.5014C22.6616 30.831 23.5266 31.0005 24.4 31ZM28.96 32.875H28.4672C27.2004 33.486 25.81 33.8065 24.4 33.8125C22.9394 33.8125 21.5738 33.4609 20.3328 32.875H19.84C18.0261 32.8755 16.2866 33.5868 15.0039 34.8525C13.7213 36.1183 13.0005 37.8349 13 39.625V41.3125C13 42.0584 13.3003 42.7738 13.8347 43.3012C14.3692 43.8287 15.0941 44.125 15.85 44.125H32.95C33.7059 44.125 34.4308 43.8287 34.9653 43.3012C35.4997 42.7738 35.8 42.0584 35.8 41.3125V39.625C35.7995 37.8349 35.0787 36.1183 33.7961 34.8525C32.5134 33.5868 30.7739 32.8755 28.96 32.875V32.875Z" fill="#718096"/>
</svg>
